<?xml version="1.0" encoding="UTF-8"?>
<svg version="1.1" xmlns="http://www.w3.org/2000/svg" width="210" height="141">
<path d="M0 0 C0.53367188 0.40734375 1.06734375 0.8146875 1.6171875 1.234375 C4.87976597 3.09710007 4.87976597 3.09710007 7.71875 1.9453125 C9.67587024 1.08053844 11.60815885 0.15617924 13.50390625 -0.8359375 C23.56713009 -4.8877966 34.53054175 -4.6383647 45.21875 -4.63623047 C47.6829815 -4.64063088 50.14545514 -4.67715566 52.609375 -4.71484375 C62.68177519 -4.78618198 70.46014701 -3.99531866 79.0546875 1.734375 C83.69732796 1.239984 87.91414136 -0.65505807 92.23828125 -2.328125 C101.73504244 -5.48932151 112.28481764 -4.79815361 122.0546875 -3.265625 C122.0546875 -2.605625 122.0546875 -1.945625 122.0546875 -1.265625 C122.9003125 -1.018125 123.7459375 -0.770625 124.6171875 -0.515625 C131.90602844 2.13486262 137.75074983 6.16306323 142.0546875 12.734375 C147.81606698 26.37355908 146.06617983 39.2033457 141.0546875 52.734375 C140.3946875 52.734375 139.7346875 52.734375 139.0546875 52.734375 C138.7865625 53.476875 138.5184375 54.219375 138.2421875 54.984375 C136.65253521 58.66567503 134.5544986 61.20679661 131.8046875 64.109375 C129.70800463 66.67072407 129.70800463 66.67072407 130.3046875 70.046875 C130.5521875 70.93375 130.7996875 71.820625 131.0546875 72.734375 C132.0446875 72.404375 133.0346875 72.074375 134.0546875 71.734375 C134.99379057 72.81631899 135.93089047 73.9000018 136.8671875 74.984375 C137.41761719 75.62117188 137.96804687 76.25796875 138.53515625 76.9140625 C140.0546875 78.734375 140.0546875 78.734375 141.6796875 81.109375 C143.3715528 83.10885217 144.54819731 83.21261582 147.0546875 83.734375 C148.09375742 106.48521062 148.09375742 106.48521062 142.0546875 116.734375 C141.68601563 117.37632813 141.31734375 118.01828125 140.9375 118.6796875 C137.70410122 123.86816461 134.34247253 126.27254353 128.8671875 128.921875 C127.78050781 129.45167969 126.69382813 129.98148438 125.57421875 130.52734375 C124.74277344 130.92566406 123.91132813 131.32398438 123.0546875 131.734375 C123.0546875 132.394375 123.0546875 133.054375 123.0546875 133.734375 C96.81955137 134.44678992 96.81955137 134.44678992 87.1796875 128.421875 C84.22935158 126.36951759 84.22935158 126.36951759 81.4296875 127.421875 C80.6459375 127.855 79.8621875 128.288125 79.0546875 128.734375 C78.1471875 128.899375 77.2396875 129.064375 76.3046875 129.234375 C75.5621875 129.399375 74.8196875 129.564375 74.0546875 129.734375 C73.7246875 130.394375 73.3946875 131.054375 73.0546875 131.734375 C61.68752372 134.67134555 49.29780114 135.24383173 38.16015625 131.41015625 C32.71331684 129.6619128 28.36214615 131.17874057 23.0546875 132.734375 C17.59926369 133.55555985 12.31617907 133.89636488 6.8046875 133.859375 C6.0710498 133.85599121 5.33741211 133.85260742 4.58154297 133.84912109 C-12.5137888 133.68872413 -12.5137888 133.68872413 -16.9453125 130.734375 C-17.9353125 130.734375 -18.9253125 130.734375 -19.9453125 130.734375 C-19.9453125 130.074375 -19.9453125 129.414375 -19.9453125 128.734375 C-20.9353125 129.064375 -21.9253125 129.394375 -22.9453125 129.734375 C-25.1328125 128.796875 -25.1328125 128.796875 -26.9453125 127.734375 C-26.9453125 127.074375 -26.9453125 126.414375 -26.9453125 125.734375 C-28.0590625 125.363125 -28.0590625 125.363125 -29.1953125 124.984375 C-33.17885831 123.17367236 -35.34281664 121.01560848 -37.2109375 117.04296875 C-37.53578125 116.09550781 -37.860625 115.14804688 -38.1953125 114.171875 C-38.53046875 113.22183594 -38.865625 112.27179688 -39.2109375 111.29296875 C-39.9453125 108.734375 -39.9453125 108.734375 -39.9453125 105.734375 C-40.6053125 105.404375 -41.2653125 105.074375 -41.9453125 104.734375 C-42.76171875 102.7734375 -42.76171875 102.7734375 -43.5078125 100.359375 C-43.88099609 99.17214844 -43.88099609 99.17214844 -44.26171875 97.9609375 C-44.48730469 97.22617188 -44.71289062 96.49140625 -44.9453125 95.734375 C-45.2753125 94.744375 -45.6053125 93.754375 -45.9453125 92.734375 C-46.32281564 90.67601846 -46.67458879 88.61286199 -47.0078125 86.546875 C-47.18441406 85.46019531 -47.36101563 84.37351562 -47.54296875 83.25390625 C-47.67574219 82.42246094 -47.80851562 81.59101562 -47.9453125 80.734375 C-48.6053125 80.734375 -49.2653125 80.734375 -49.9453125 80.734375 C-50.17317708 78.78125 -50.40104167 76.828125 -50.62890625 74.875 C-50.94007981 72.76977638 -51.4198476 70.79632012 -51.9453125 68.734375 C-54.42889301 58.63435539 -56.30792344 48.47784786 -58.0703125 38.234375 C-58.46702973 35.94781479 -58.86474922 33.66143152 -59.26290894 31.37512207 C-59.50772471 29.96734731 -59.75154138 28.55939829 -59.99417114 27.15124512 C-60.47427112 24.37429675 -60.97001491 21.63404626 -61.64404297 18.89648438 C-61.74346191 18.18298828 -61.84288086 17.46949219 -61.9453125 16.734375 C-60.0703125 14.671875 -60.0703125 14.671875 -57.9453125 12.734375 C-57.7803125 12.033125 -57.6153125 11.331875 -57.4453125 10.609375 C-57.2803125 9.990625 -57.1153125 9.371875 -56.9453125 8.734375 C-55.1953125 7.734375 -55.1953125 7.734375 -52.9453125 6.734375 C-51.6459375 5.6825 -51.6459375 5.6825 -50.3203125 4.609375 C-47.9453125 2.734375 -47.9453125 2.734375 -45.9453125 2.734375 C-45.9453125 2.074375 -45.9453125 1.414375 -45.9453125 0.734375 C-44.05078029 0.08473477 -42.15462601 -0.56017615 -40.2578125 -1.203125 C-38.67419922 -1.74259766 -38.67419922 -1.74259766 -37.05859375 -2.29296875 C-26.1211701 -5.71005594 -9.98626593 -6.49708868 0 0 Z " fill="#3B3B3B" transform="translate(62.9453125,7.265625)"/>
<path d="M0 0 C0.556875 0.37253906 1.11375 0.74507812 1.6875 1.12890625 C2.615625 1.72703125 3.54375 2.32515625 4.5 2.94140625 C8.55926978 7.00067603 10.89341925 10.88189547 11.11328125 16.6171875 C11.09621224 18.22561313 11.0581012 19.83393973 11 21.44140625 C10.98549805 22.62766602 10.98549805 22.62766602 10.97070312 23.83789062 C10.89519358 27.87929277 10.63773402 31.86462115 10.203125 35.8828125 C9.53040099 42.16014166 9.33944867 48.44700598 9.125 54.75390625 C9.06022461 56.54634766 9.06022461 56.54634766 8.99414062 58.375 C8.88909693 61.29288031 8.78694352 64.21083063 8.6875 67.12890625 C9.6775 66.79890625 10.6675 66.46890625 11.6875 66.12890625 C13.02192129 63.46006367 12.9646495 61.22678955 13.13647461 58.2421875 C13.2100267 57.00750732 13.2835788 55.77282715 13.35935974 54.50073242 C13.39682249 53.83931244 13.43428524 53.17789246 13.47288322 52.49642944 C13.59056671 50.42870374 13.71446353 48.36143859 13.84022522 46.29418945 C14.19693404 40.41638919 14.54438475 34.53807482 14.88256836 28.65917969 C15.08980223 25.06430493 15.30605011 21.4700656 15.52795601 17.87606812 C15.61077519 16.50471509 15.69007322 15.13314482 15.76582146 13.76138306 C15.87179465 11.84564345 15.99016333 9.93060157 16.10913086 8.015625 C16.172733 6.92467529 16.23633514 5.83372559 16.30186462 4.7097168 C16.6875 2.12890625 16.6875 2.12890625 18.6875 0.12890625 C28.35338469 -3.69249002 42.07330675 -5.28803046 51.8125 -1.12109375 C53.12600097 -0.41002556 54.42153102 0.33629959 55.6875 1.12890625 C56.63625 1.70640625 57.585 2.28390625 58.5625 2.87890625 C62.92540883 7.49845678 63.95215685 12.5532913 63.84155273 18.82519531 C63.54064343 23.32500539 62.68053677 27.70888682 61.8125 32.12890625 C61.60052979 33.21743896 61.38855957 34.30597168 61.17016602 35.42749023 C58.95196389 46.41934655 56.3139511 57.30683728 53.625 68.19140625 C53.41176086 69.06434326 53.19852173 69.93728027 52.9788208 70.83666992 C46.68694117 96.48683334 46.68694117 96.48683334 39.6875 102.12890625 C27.21870726 109.36315864 9.69000792 110.47751214 -4.359375 107.375 C-17.20978104 103.59982311 -17.20978104 103.59982311 -20.40698242 98.32226562 C-21.45816049 95.9980743 -22.34039591 93.66013669 -23.1875 91.25390625 C-23.51919189 90.34406982 -23.85088379 89.4342334 -24.19262695 88.49682617 C-45.31935556 28.60545792 -45.31935556 28.60545792 -41.3125 6.12890625 C-32.00652669 -4.28492102 -12.18852642 -6.83224039 0 0 Z " fill="#FDFDFD" transform="translate(51.3125,12.87109375)"/>
<path d="M0 0 C8.87929478 -0.39956827 15.32917793 -0.14772792 22.875 4.9375 C26.55544849 8.5097 27.32357489 11.54528038 27.4375 16.625 C27.36868173 22.26809823 25.94751927 25.94926003 23.1796875 30.796875 C21.74098618 33.48372117 21.2389369 35.97346588 21 39 C21.99 39 22.98 39 24 39 C24.37253906 37.79085937 24.74507812 36.58171875 25.12890625 35.3359375 C27.27844984 28.8986533 30.10569098 22.78530562 32.9375 16.625 C33.72543945 14.86349609 33.72543945 14.86349609 34.52929688 13.06640625 C35.04427734 11.94363281 35.55925781 10.82085937 36.08984375 9.6640625 C36.55253662 8.64779785 37.01522949 7.6315332 37.49194336 6.58447266 C39.35771416 3.38695773 41.30863763 1.63846129 44.76953125 0.33203125 C53.94622488 -1.03402647 64.08326203 -1.38338182 72 4 C76.72423101 7.88436772 80.37976013 12.36470519 81.421875 18.47265625 C81.93272413 28.33488246 78.43172009 36.53507812 72.0559082 43.91625977 C67.74491734 48.6876977 63.76429361 52.19942339 58 55 C55.375 54.25 55.375 54.25 53 53 C50.29113059 52.83201738 50.29113059 52.83201738 48 53 C47.67 53.99 47.34 54.98 47 56 C47.680625 56.0825 48.36125 56.165 49.0625 56.25 C56.52708172 58.15585065 61.56478553 63.084854 66.9375 68.3125 C68.27864754 69.60161465 69.6210943 70.88937901 70.96484375 72.17578125 C71.6211377 72.81064453 72.27743164 73.44550781 72.95361328 74.09960938 C75.68512034 76.63624156 78.57808512 78.96088636 81.5090332 81.26293945 C83.46049085 83.53649785 83.40539123 84.93218462 83.25 87.875 C81.50318929 96.7165496 78.40945664 102.75664901 71 108 C64.93920456 112.04053029 57.07046954 111.60706052 50 111 C43.17704629 109.54914203 38.3556186 106.39904012 33.94921875 101.02734375 C29.34652305 93.87886846 25.96550789 85.7289881 23.20947266 77.69580078 C22.5482696 75.76968752 21.78190764 73.88035162 21 72 C20.01 71.67 19.02 71.34 18 71 C18.52327401 76.10353669 19.69103809 80.02222473 21.9375 84.625 C25.32918276 91.64169997 27.26359628 96.22390961 27 104 C25.32062972 104.99304535 23.63102645 105.96879376 21.9375 106.9375 C20.99777344 107.48277344 20.05804688 108.02804688 19.08984375 108.58984375 C13.3287219 111.21912945 7.24705611 111.20212984 1 111.25 C0.32710937 111.270625 -0.34578125 111.29125 -1.0390625 111.3125 C-6.15560513 111.35200998 -9.50979085 110.22171807 -14 108 C-12.96802867 105.07608122 -11.85796628 102.79840375 -10.0625 100.25 C-5.35732215 92.83578035 -3.94885678 83.90844993 -2.0625 75.4375 C-1.53755414 73.12084517 -1.0115149 70.80443782 -0.484375 68.48828125 C-0.23107422 67.37404785 0.02222656 66.25981445 0.28320312 65.11181641 C2.01803842 57.58040949 3.94178082 50.09587513 5.875 42.61328125 C10.12378011 26.55943807 10.12378011 26.55943807 8.0234375 10.4921875 C6.79907771 8.51668674 5.50462974 6.76889899 4 5 C3.236875 4.01 2.47375 3.02 1.6875 2 C0.8521875 1.01 0.8521875 1.01 0 0 Z " fill="#FBFBFB" transform="translate(108,10)"/>
<path d="M0 0 C0.53367188 0.40734375 1.06734375 0.8146875 1.6171875 1.234375 C4.87976597 3.09710007 4.87976597 3.09710007 7.71875 1.9453125 C9.67587024 1.08053844 11.60815885 0.15617924 13.50390625 -0.8359375 C23.56713009 -4.8877966 34.53054175 -4.6383647 45.21875 -4.63623047 C47.6829815 -4.64063088 50.14545514 -4.67715566 52.609375 -4.71484375 C62.68177519 -4.78618198 70.46014701 -3.99531866 79.0546875 1.734375 C83.69732796 1.239984 87.91414136 -0.65505807 92.23828125 -2.328125 C101.73504244 -5.48932151 112.28481764 -4.79815361 122.0546875 -3.265625 C122.0546875 -2.605625 122.0546875 -1.945625 122.0546875 -1.265625 C123.0034375 -1.03875 123.9521875 -0.811875 124.9296875 -0.578125 C128.0546875 0.734375 128.0546875 0.734375 129.4921875 3.234375 C130.0546875 5.734375 130.0546875 5.734375 129.0546875 7.734375 C130.0446875 8.229375 130.0446875 8.229375 131.0546875 8.734375 C130.3946875 8.734375 129.7346875 8.734375 129.0546875 8.734375 C129.3846875 10.384375 129.7146875 12.034375 130.0546875 13.734375 C129.0646875 14.064375 128.0746875 14.394375 127.0546875 14.734375 C126.7246875 15.724375 126.3946875 16.714375 126.0546875 17.734375 C123.97843563 15.86574832 122.77958109 14.25548607 121.3671875 11.796875 C117.87102388 7.16682047 113.45113321 5.53319024 108.0546875 3.734375 C105.4567753 3.58559589 102.90325601 3.50334265 100.3046875 3.484375 C99.61375 3.46375 98.9228125 3.443125 98.2109375 3.421875 C97.52515625 3.41671875 96.839375 3.4115625 96.1328125 3.40625 C95.21097168 3.39223145 95.21097168 3.39223145 94.27050781 3.37792969 C90.7949434 3.93702224 88.15308046 5.06358715 85.0546875 6.734375 C82.9929496 9.5189135 82.9929496 9.5189135 81.6328125 12.90625 C81.36128357 13.5068927 81.08975464 14.1075354 80.80999756 14.72637939 C79.95258317 16.63669147 79.12851376 18.5593757 78.3046875 20.484375 C77.73781863 21.76136947 77.16882531 23.0374231 76.59765625 24.3125 C75.0545914 27.77429058 73.54869661 31.25108816 72.0546875 34.734375 C71.77524292 35.38587524 71.49579834 36.03737549 71.20788574 36.70861816 C70.48965201 38.38365572 69.77210394 40.05898724 69.0546875 41.734375 C68.0646875 41.734375 67.0746875 41.734375 66.0546875 41.734375 C65.47366694 37.31861878 66.41246549 34.85072049 68.5546875 31.109375 C71.6033749 25.40927957 71.94063975 20.09457955 71.0546875 13.734375 C69.822186 10.30667184 68.2769883 8.89941152 65.1796875 7.046875 C64.50164062 6.63050781 63.82359375 6.21414063 63.125 5.78515625 C58.84560879 3.61316335 55.07580967 3.62416378 50.3046875 3.671875 C48.54898438 3.68541016 48.54898438 3.68541016 46.7578125 3.69921875 C45.86578125 3.71082031 44.97375 3.72242188 44.0546875 3.734375 C44.0546875 3.074375 44.0546875 2.414375 44.0546875 1.734375 C45.0240625 1.610625 45.9934375 1.486875 46.9921875 1.359375 C48.0028125 1.153125 49.0134375 0.946875 50.0546875 0.734375 C50.3846875 0.074375 50.7146875 -0.585625 51.0546875 -1.265625 C47.4246875 -1.265625 43.7946875 -1.265625 40.0546875 -1.265625 C40.5496875 -0.481875 41.0446875 0.301875 41.5546875 1.109375 C43.0546875 3.734375 43.0546875 3.734375 43.0546875 5.734375 C42.0440625 5.404375 41.0334375 5.074375 39.9921875 4.734375 C28.57002095 1.88899543 16.80874078 3.39347149 6.0546875 7.734375 C6.00901642 8.50445389 5.96334534 9.27453278 5.91629028 10.06794739 C5.48443067 17.32264707 5.04393328 24.57674593 4.59370613 31.83032703 C4.36254118 35.55954825 4.13473014 39.2889116 3.91455078 43.01879883 C3.70197042 46.61786798 3.48062359 50.21630011 3.25317001 53.81445885 C3.16790748 55.18779119 3.0858137 56.56132403 3.0069313 57.93503761 C2.89596868 59.85799069 2.77272538 61.78022325 2.64892578 63.70239258 C2.58230743 64.79715408 2.51568909 65.89191559 2.447052 67.01985168 C2.0546875 69.734375 2.0546875 69.734375 0.0546875 72.734375 C-0.9353125 72.734375 -1.9253125 72.734375 -2.9453125 72.734375 C-2.97469273 68.60939032 -2.99223785 64.48443309 -3.0078125 60.359375 C-3.01619141 59.20308594 -3.02457031 58.04679687 -3.03320312 56.85546875 C-3.05010966 50.8705538 -2.87088297 45.02645202 -2.1965332 39.08007812 C-0.52674371 25.21912909 -0.52674371 25.21912909 -4.4453125 12.296875 C-8.38948835 7.58447487 -13.25631446 5.63070768 -18.9453125 3.734375 C-21.85416632 3.58476036 -24.72325108 3.50319189 -27.6328125 3.484375 C-28.41076172 3.46375 -29.18871094 3.443125 -29.99023438 3.421875 C-38.15974109 3.3673662 -44.37993948 5.93044352 -50.9453125 10.734375 C-52.53370405 12.32276655 -52.10118418 13.94203592 -52.109375 16.140625 C-52.0490552 21.62778061 -51.3089948 26.84593734 -50.3203125 32.234375 C-50.14862549 33.20544189 -49.97693848 34.17650879 -49.80004883 35.17700195 C-48.13499861 44.29678808 -46.03301723 53.31133805 -43.78857422 62.3046875 C-43.53479004 63.34753906 -43.28100586 64.39039062 -43.01953125 65.46484375 C-42.78838623 66.38676514 -42.55724121 67.30868652 -42.3190918 68.25854492 C-41.69865696 72.36816589 -43.02510376 75.14998534 -44.9453125 78.734375 C-45.6053125 78.734375 -46.2653125 78.734375 -46.9453125 78.734375 C-46.9453125 80.054375 -46.9453125 81.374375 -46.9453125 82.734375 C-46.2853125 83.064375 -45.6253125 83.394375 -44.9453125 83.734375 C-45.2753125 84.394375 -45.6053125 85.054375 -45.9453125 85.734375 C-45.2853125 86.064375 -44.6253125 86.394375 -43.9453125 86.734375 C-44.6053125 88.054375 -45.2653125 89.374375 -45.9453125 90.734375 C-46.6053125 87.434375 -47.2653125 84.134375 -47.9453125 80.734375 C-48.6053125 80.734375 -49.2653125 80.734375 -49.9453125 80.734375 C-50.17317708 78.78125 -50.40104167 76.828125 -50.62890625 74.875 C-50.94007981 72.76977638 -51.4198476 70.79632012 -51.9453125 68.734375 C-54.42889301 58.63435539 -56.30792344 48.47784786 -58.0703125 38.234375 C-58.46702973 35.94781479 -58.86474922 33.66143152 -59.26290894 31.37512207 C-59.50772471 29.96734731 -59.75154138 28.55939829 -59.99417114 27.15124512 C-60.47427112 24.37429675 -60.97001491 21.63404626 -61.64404297 18.89648438 C-61.74346191 18.18298828 -61.84288086 17.46949219 -61.9453125 16.734375 C-60.0703125 14.671875 -60.0703125 14.671875 -57.9453125 12.734375 C-57.7803125 12.033125 -57.6153125 11.331875 -57.4453125 10.609375 C-57.2803125 9.990625 -57.1153125 9.371875 -56.9453125 8.734375 C-55.1953125 7.734375 -55.1953125 7.734375 -52.9453125 6.734375 C-51.6459375 5.6825 -51.6459375 5.6825 -50.3203125 4.609375 C-47.9453125 2.734375 -47.9453125 2.734375 -45.9453125 2.734375 C-45.9453125 2.074375 -45.9453125 1.414375 -45.9453125 0.734375 C-44.05078029 0.08473477 -42.15462601 -0.56017615 -40.2578125 -1.203125 C-38.67419922 -1.74259766 -38.67419922 -1.74259766 -37.05859375 -2.29296875 C-26.1211701 -5.71005594 -9.98626593 -6.49708868 0 0 Z " fill="#3C3C3C" transform="translate(62.9453125,7.265625)"/>
<path d="M0 0 C1.25425781 0.00902344 2.50851563 0.01804688 3.80078125 0.02734375 C4.75339844 0.03894531 5.70601562 0.05054688 6.6875 0.0625 C6.6875 0.3925 6.6875 0.7225 6.6875 1.0625 C-1.7275 1.5575 -1.7275 1.5575 -10.3125 2.0625 C-10.3125 3.3825 -10.3125 4.7025 -10.3125 6.0625 C-7.3425 6.0625 -4.3725 6.0625 -1.3125 6.0625 C-1.3125 6.3925 -1.3125 6.7225 -1.3125 7.0625 C-2.2303125 7.09988281 -3.148125 7.13726563 -4.09375 7.17578125 C-13.86241882 7.69910279 -23.04125418 8.79125418 -30.3125 16.0625 C-30.8742463 23.01610404 -29.93925555 29.74028143 -28.6875 36.5625 C-28.51581299 37.53356689 -28.34412598 38.50463379 -28.16723633 39.50512695 C-26.50218611 48.62491308 -24.40020473 57.63946305 -22.15576172 66.6328125 C-21.90197754 67.67566406 -21.64819336 68.71851562 -21.38671875 69.79296875 C-21.15557373 70.71489014 -20.92442871 71.63681152 -20.6862793 72.58666992 C-20.06584446 76.69629089 -21.39229126 79.47811034 -23.3125 83.0625 C-23.9725 83.0625 -24.6325 83.0625 -25.3125 83.0625 C-25.3125 84.3825 -25.3125 85.7025 -25.3125 87.0625 C-24.6525 87.3925 -23.9925 87.7225 -23.3125 88.0625 C-23.6425 88.7225 -23.9725 89.3825 -24.3125 90.0625 C-23.6525 90.3925 -22.9925 90.7225 -22.3125 91.0625 C-22.9725 92.3825 -23.6325 93.7025 -24.3125 95.0625 C-24.9725 91.7625 -25.6325 88.4625 -26.3125 85.0625 C-26.9725 85.0625 -27.6325 85.0625 -28.3125 85.0625 C-28.54036458 83.109375 -28.76822917 81.15625 -28.99609375 79.203125 C-29.30726731 77.09790138 -29.7870351 75.12444512 -30.3125 73.0625 C-32.79608051 62.96248039 -34.67511094 52.80597286 -36.4375 42.5625 C-36.83421723 40.27593979 -37.23193672 37.98955652 -37.63009644 35.70324707 C-37.87491221 34.29547231 -38.11872888 32.88752329 -38.36135864 31.47937012 C-38.84145862 28.70242175 -39.33720241 25.96217126 -40.01123047 23.22460938 C-40.11064941 22.51111328 -40.21006836 21.79761719 -40.3125 21.0625 C-38.4375 19 -38.4375 19 -36.3125 17.0625 C-36.1475 16.36125 -35.9825 15.66 -35.8125 14.9375 C-35.6475 14.31875 -35.4825 13.7 -35.3125 13.0625 C-33.5625 12.0625 -33.5625 12.0625 -31.3125 11.0625 C-30.013125 10.010625 -30.013125 10.010625 -28.6875 8.9375 C-26.3125 7.0625 -26.3125 7.0625 -24.3125 7.0625 C-24.3125 6.4025 -24.3125 5.7425 -24.3125 5.0625 C-22.41796779 4.41285977 -20.52181351 3.76794885 -18.625 3.125 C-17.04138672 2.58552734 -17.04138672 2.58552734 -15.42578125 2.03515625 C-10.12717272 0.3797566 -5.564912 -0.05200852 0 0 Z " fill="#4A4A4A" transform="translate(41.3125,2.9375)"/>
<path d="M0 0 C0 0.66 0 1.32 0 2 C0.94875 2.226875 1.8975 2.45375 2.875 2.6875 C6 4 6 4 7.4375 6.5 C8 9 8 9 7 11 C7.66 11.33 8.32 11.66 9 12 C8.34 12 7.68 12 7 12 C7.495 14.475 7.495 14.475 8 17 C7.01 17.33 6.02 17.66 5 18 C4.505 19.485 4.505 19.485 4 21 C1.92374813 19.13137332 0.72489359 17.52111107 -0.6875 15.0625 C-4.18366362 10.43244547 -8.60355429 8.79881524 -14 7 C-16.5979122 6.85122089 -19.15143149 6.76896765 -21.75 6.75 C-22.4409375 6.729375 -23.131875 6.70875 -23.84375 6.6875 C-28.95751857 6.64905061 -32.44894236 7.64442745 -37 10 C-37.66 10.66 -38.32 11.32 -39 12 C-39.99 11.67 -40.98 11.34 -42 11 C-42 10.34 -42 9.68 -42 9 C-43.65 9.33 -45.3 9.66 -47 10 C-47.33 7.69 -47.66 5.38 -48 3 C-47.278125 3.350625 -46.55625 3.70125 -45.8125 4.0625 C-40.25165499 5.916115 -35.04345 2.95991238 -29.81640625 0.9375 C-20.31964506 -2.22369651 -9.76986986 -1.53252861 0 0 Z " fill="#343434" transform="translate(185,4)"/>
<path d="M0 0 C1.98851409 0.23199331 3.97674375 0.46794616 5.9609375 0.734375 C7.42763153 0.92543859 8.90050148 1.07109222 10.375 1.1875 C12 2 12 2 13.25 5.0625 C13.4975 6.031875 13.745 7.00125 14 8 C15.32 8 16.64 8 18 8 C18 8.66 18 9.32 18 10 C18.99 10 19.98 10 21 10 C20.3436716 14.30338565 18.85328259 17.87674613 17.05859375 21.83203125 C16.77146011 22.46864182 16.48432648 23.10525238 16.18849182 23.76115417 C15.27635209 25.78050998 14.35705292 27.79651078 13.4375 29.8125 C12.8152785 31.1866332 12.1935286 32.56098005 11.57226562 33.93554688 C10.05362805 37.2928549 8.52855513 40.64719371 7 44 C6.01 44 5.02 44 4 44 C3.41897944 39.58424378 4.35777799 37.11634549 6.5 33.375 C9.5486874 27.67490457 9.88595225 22.36020455 9 16 C7.67848324 11.85975675 5.00215225 10.44316183 1.375 8.25 C0.37210937 7.63640625 -0.63078125 7.0228125 -1.6640625 6.390625 C-2.43492188 5.93171875 -3.20578125 5.4728125 -4 5 C-1 3 -1 3 1 3 C0.67 2.01 0.34 1.02 0 0 Z " fill="#323232" transform="translate(125,5)"/>
<path d="M0 0 C2.48595028 0.00318649 4.9707366 -0.02047848 7.45654297 -0.0456543 C9.06201024 -0.04792564 10.66748066 -0.04863156 12.27294922 -0.04760742 C13.00334412 -0.05681717 13.73373901 -0.06602692 14.48626709 -0.07551575 C19.81683722 -0.02817967 23.82001058 1.22800919 28.72607422 3.31567383 C27.73607422 3.64567383 26.74607422 3.97567383 25.72607422 4.31567383 C25.39607422 4.97567383 25.06607422 5.63567383 24.72607422 6.31567383 C24.72607422 5.32567383 24.72607422 4.33567383 24.72607422 3.31567383 C23.94232422 3.50129883 23.15857422 3.68692383 22.35107422 3.87817383 C19.72607422 4.31567383 19.72607422 4.31567383 17.72607422 3.31567383 C17.72607422 3.97567383 17.72607422 4.63567383 17.72607422 5.31567383 C17.06607422 5.31567383 16.40607422 5.31567383 15.72607422 5.31567383 C15.39607422 5.97567383 15.06607422 6.63567383 14.72607422 7.31567383 C11.3037445 8.4564504 8.63934204 8.41382499 5.03857422 8.37817383 C3.26933594 8.36463867 3.26933594 8.36463867 1.46435547 8.35083008 C0.56072266 8.33922852 -0.34291016 8.32762695 -1.27392578 8.31567383 C-1.27392578 7.65567383 -1.27392578 6.99567383 -1.27392578 6.31567383 C-0.30455078 6.19192383 0.66482422 6.06817383 1.66357422 5.94067383 C2.67419922 5.73442383 3.68482422 5.52817383 4.72607422 5.31567383 C5.05607422 4.65567383 5.38607422 3.99567383 5.72607422 3.31567383 C2.09607422 3.31567383 -1.53392578 3.31567383 -5.27392578 3.31567383 C-4.77892578 4.09942383 -4.28392578 4.88317383 -3.77392578 5.69067383 C-2.27392578 8.31567383 -2.27392578 8.31567383 -2.27392578 10.31567383 C-3.28455078 9.98567383 -4.29517578 9.65567383 -5.33642578 9.31567383 C-15.01489414 6.91746928 -25.28141036 7.92807801 -34.88330078 10.17114258 C-37.27392578 10.31567383 -37.27392578 10.31567383 -39.10205078 8.86645508 C-39.48876953 8.35469727 -39.87548828 7.84293945 -40.27392578 7.31567383 C-38.53196737 6.5064662 -36.77967523 5.71950628 -35.02392578 4.94067383 C-34.04939453 4.49981445 -33.07486328 4.05895508 -32.07080078 3.60473633 C-21.82098876 -0.22967443 -10.78343525 -0.02892437 0 0 Z " fill="#545454" transform="translate(108.27392578125,2.684326171875)"/>
<path d="M0 0 C1.25425781 0.00902344 2.50851563 0.01804688 3.80078125 0.02734375 C4.75339844 0.03894531 5.70601562 0.05054688 6.6875 0.0625 C6.6875 0.3925 6.6875 0.7225 6.6875 1.0625 C-1.7275 1.5575 -1.7275 1.5575 -10.3125 2.0625 C-10.3125 3.3825 -10.3125 4.7025 -10.3125 6.0625 C-7.3425 6.0625 -4.3725 6.0625 -1.3125 6.0625 C-1.3125 6.3925 -1.3125 6.7225 -1.3125 7.0625 C-2.2303125 7.09988281 -3.148125 7.13726563 -4.09375 7.17578125 C-13.86241882 7.69910279 -23.04125418 8.79125418 -30.3125 16.0625 C-30.30493725 19.37498364 -30.23455615 22.67496874 -30.09765625 25.984375 C-30.00549784 30.54202736 -30.39551587 33.48320546 -33.3125 37.0625 C-33.9725 37.0625 -34.6325 37.0625 -35.3125 37.0625 C-35.3125 39.3725 -35.3125 41.6825 -35.3125 44.0625 C-35.6425 44.0625 -35.9725 44.0625 -36.3125 44.0625 C-36.51746094 42.82113281 -36.72242188 41.57976563 -36.93359375 40.30078125 C-37.20568572 38.65884697 -37.47782355 37.01692028 -37.75 35.375 C-37.88470703 34.55837891 -38.01941406 33.74175781 -38.15820312 32.90039062 C-38.29033203 32.10439453 -38.42246094 31.30839844 -38.55859375 30.48828125 C-38.68492188 29.71814697 -38.81125 28.9480127 -38.94140625 28.15454102 C-39.24185796 26.46074451 -39.6226254 24.78132622 -40.02734375 23.109375 C-40.12144531 22.43390625 -40.21554688 21.7584375 -40.3125 21.0625 C-38.4375 19 -38.4375 19 -36.3125 17.0625 C-36.1475 16.36125 -35.9825 15.66 -35.8125 14.9375 C-35.6475 14.31875 -35.4825 13.7 -35.3125 13.0625 C-33.5625 12.0625 -33.5625 12.0625 -31.3125 11.0625 C-30.013125 10.010625 -30.013125 10.010625 -28.6875 8.9375 C-26.3125 7.0625 -26.3125 7.0625 -24.3125 7.0625 C-24.3125 6.4025 -24.3125 5.7425 -24.3125 5.0625 C-22.41796779 4.41285977 -20.52181351 3.76794885 -18.625 3.125 C-17.04138672 2.58552734 -17.04138672 2.58552734 -15.42578125 2.03515625 C-10.12717272 0.3797566 -5.564912 -0.05200852 0 0 Z " fill="#606060" transform="translate(41.3125,2.9375)"/>
<path d="M0 0 C0 0.66 0 1.32 0 2 C1.98 2.66 3.96 3.32 6 4 C5.01 4.66 4.02 5.32 3 6 C3 5.34 3 4.68 3 4 C1.68 4 0.36 4 -1 4 C-1 3.34 -1 2.68 -1 2 C-2.74965358 1.94570041 -4.49979787 1.90707177 -6.25 1.875 C-7.22453125 1.85179687 -8.1990625 1.82859375 -9.203125 1.8046875 C-12.0196498 2.00137219 -13.60949036 2.55431084 -16 4 C-16 4.33 -16 4.66 -16 5 C-19.63 5 -23.26 5 -27 5 C-25.68 4.34 -24.36 3.68 -23 3 C-26.93075644 3.57452746 -26.93075644 3.57452746 -30 6 C-30.598125 6.28875 -31.19625 6.5775 -31.8125 6.875 C-34.18755558 7.9906372 -34.18755558 7.9906372 -36.5625 10.1875 C-37.7690625 11.0846875 -37.7690625 11.0846875 -39 12 C-39.99 11.67 -40.98 11.34 -42 11 C-42 10.34 -42 9.68 -42 9 C-43.65 9.33 -45.3 9.66 -47 10 C-47.33 7.69 -47.66 5.38 -48 3 C-47.278125 3.350625 -46.55625 3.70125 -45.8125 4.0625 C-40.25165499 5.916115 -35.04345 2.95991238 -29.81640625 0.9375 C-20.31964506 -2.22369651 -9.76986986 -1.53252861 0 0 Z " fill="#616161" transform="translate(185,4)"/>
<path d="M0 0 C-0.99 0.33 -1.98 0.66 -3 1 C-3.33 1.66 -3.66 2.32 -4 3 C-4 2.01 -4 1.02 -4 0 C-5.175625 0.2784375 -5.175625 0.2784375 -6.375 0.5625 C-9 1 -9 1 -11 0 C-11 0.66 -11 1.32 -11 2 C-11.66 2 -12.32 2 -13 2 C-13.33 2.66 -13.66 3.32 -14 4 C-17.42232972 5.14077657 -20.08673217 5.09815117 -23.6875 5.0625 C-25.45673828 5.04896484 -25.45673828 5.04896484 -27.26171875 5.03515625 C-28.61716797 5.01775391 -28.61716797 5.01775391 -30 5 C-30 4.34 -30 3.68 -30 3 C-29.030625 2.87625 -28.06125 2.7525 -27.0625 2.625 C-26.051875 2.41875 -25.04125 2.2125 -24 2 C-23.67 1.34 -23.34 0.68 -23 0 C-26.3 -0.33 -29.6 -0.66 -33 -1 C-33 -1.33 -33 -1.66 -33 -2 C-22.2109691 -3.54129013 -10.00667681 -5.0033384 0 0 Z " fill="#636363" transform="translate(137,6)"/>
<path d="M0 0 C0.66 0.33 1.32 0.66 2 1 C3.86360591 6.90141871 4.22742222 12.85959995 4 19 C3.34 18.34 2.68 17.68 2 17 C1.01 17.99 0.02 18.98 -1 20 C-2.48828125 18.88671875 -2.48828125 18.88671875 -4 17 C-4.29296875 14.08203125 -4.29296875 14.08203125 -4.1875 10.8125 C-4.16042969 9.72582031 -4.13335938 8.63914062 -4.10546875 7.51953125 C-4.07066406 6.68808594 -4.03585938 5.85664062 -4 5 C-3.34 5 -2.68 5 -2 5 C-1.7834375 4.0409375 -1.7834375 4.0409375 -1.5625 3.0625 C-1 1 -1 1 0 0 Z " fill="#3C3C3C" transform="translate(10,35)"/>
<path d="M0 0 C1.62463842 -0.05395478 3.24978541 -0.09277195 4.875 -0.125 C6.23238281 -0.15980469 6.23238281 -0.15980469 7.6171875 -0.1953125 C10 0 10 0 12 2 C12 2.66 12 3.32 12 4 C12.64252365 6.0078864 13.30741771 8.00882592 14 10 C13.39414063 9.79503906 12.78828125 9.59007812 12.1640625 9.37890625 C6.09658479 7.4279788 0.35696876 6.3922385 -6 6 C-4.71034824 4.62437146 -3.37310707 3.29233607 -2 2 C-1.34 2 -0.68 2 0 2 C0 1.34 0 0.68 0 0 Z " fill="#484848" transform="translate(92,3)"/>
<path d="M0 0 C1.67299959 0.65061095 3.33859237 1.32033324 5 2 C6.0828125 2.433125 6.0828125 2.433125 7.1875 2.875 C9.45326786 4.28133867 9.9104736 5.60304192 11 8 C11.515625 8.45375 12.03125 8.9075 12.5625 9.375 C14.62278935 11.70402275 14.6639317 13.97538534 15 17 C14.01 17.33 13.02 17.66 12 18 C12 17.34 12 16.68 12 16 C11.01 15.67 10.02 15.34 9 15 C9.66 13.68 10.32 12.36 11 11 C10.01 10.67 9.02 10.34 8 10 C7.67 10.66 7.34 11.32 7 12 C5.02 11.34 3.04 10.68 1 10 C1.020625 8.906875 1.04125 7.81375 1.0625 6.6875 C1.18544452 3.05615809 1.18544452 3.05615809 0 0 Z " fill="#5D5D5D" transform="translate(191,9)"/>
<path d="M0 0 C0.33 0 0.66 0 1 0 C1.33 2.97 1.66 5.94 2 9 C2.33 8.34 2.66 7.68 3 7 C3.66 7 4.32 7 5 7 C5.05394705 9.60444348 5.09364469 12.20776998 5.125 14.8125 C5.14175781 15.55048828 5.15851563 16.28847656 5.17578125 17.04882812 C5.21074628 20.91246426 5.19397555 22.70903668 3 26 C2.01 26 1.02 26 0 26 C0 17.42 0 8.84 0 0 Z " fill="#585858" transform="translate(60,54)"/>
<path d="M0 0 C4.95 0 9.9 0 15 0 C14.67 0.66 14.34 1.32 14 2 C14.66 2.66 15.32 3.32 16 4 C13.03 4 10.06 4 7 4 C7 4.66 7 5.32 7 6 C7.598125 6.268125 8.19625 6.53625 8.8125 6.8125 C11.01819033 8.00987475 12.43583187 9.04478984 14 11 C14 11.99 14 12.98 14 14 C7.62961639 11.0423219 5.73626208 8.5432354 3 2 C2.01 1.34 1.02 0.68 0 0 Z " fill="#363636" transform="translate(100,5)"/>
<path d="M0 0 C0.99 0.33 1.98 0.66 3 1 C2.57302085 6.97770807 1.48576744 12.6299444 0.0625 18.4375 C-0.10733398 19.14777344 -0.27716797 19.85804687 -0.45214844 20.58984375 C-1.75614198 25.75614198 -1.75614198 25.75614198 -4 28 C-4.6283815 18.26008676 -2.29192372 9.39279453 0 0 Z " fill="#393939" transform="translate(111,50)"/>
<path d="M0 0 C0.99 0.33 1.98 0.66 3 1 C3.9765625 7.0546875 3.9765625 7.0546875 4 9 C2 11 2 11 -1 12 C-1.33 13.65 -1.66 15.3 -2 17 C-3.91302307 13.73386305 -4.35674661 11.00554752 -4.625 7.25 C-4.69976563 6.26515625 -4.77453125 5.2803125 -4.8515625 4.265625 C-4.90054687 3.51796875 -4.94953125 2.7703125 -5 2 C-3.68 2.33 -2.36 2.66 -1 3 C-0.67 2.01 -0.34 1.02 0 0 Z " fill="#555555" transform="translate(12,51)"/>
<path d="M0 0 C0.33 0 0.66 0 1 0 C3.68636301 8.9815149 2.71366389 14.30483938 -1.6171875 22.578125 C-2.07351562 23.37734375 -2.52984375 24.1765625 -3 25 C-3.99 25 -4.98 25 -6 25 C-6.58035537 20.58929916 -5.62290413 17.98266968 -3.5625 14.1875 C-0.95174087 9.32735801 -0.26539451 5.48481984 0 0 Z " fill="#3F3F3F" transform="translate(135,24)"/>
<path d="M0 0 C0.33 1.65 0.66 3.3 1 5 C1.556875 4.649375 2.11375 4.29875 2.6875 3.9375 C5.53886783 2.78154007 7.08517222 3.19032562 10 4 C5.73333333 8.62222222 5.73333333 8.62222222 2.9375 10.0625 C1 10 1 10 -1.1875 8.3125 C-3 6 -3 6 -3.5 3.875 C-3.82698013 1.77924751 -3.82698013 1.77924751 -6.0625 0.75 C-6.701875 0.5025 -7.34125 0.255 -8 0 C-4.94736336 -0.98120464 -3.05263664 -0.98120464 0 0 Z M-9 2 C-8.01 2 -7.02 2 -6 2 C-6.33 2.66 -6.66 3.32 -7 4 C-7.66 3.34 -8.32 2.68 -9 2 Z " fill="#2F2F2F" transform="translate(61,8)"/>
<path d="M0 0 C0.680625 0.33 1.36125 0.66 2.0625 1 C5.50809495 2.17296849 8.38246423 2.06825539 12 2 C12.66 2.33 13.32 2.66 14 3 C14 3.66 14 4.32 14 5 C11.6875 7.1875 11.6875 7.1875 9 9 C8.01 8.67 7.02 8.34 6 8 C6 7.34 6 6.68 6 6 C4.35 6.33 2.7 6.66 1 7 C0.67 4.69 0.34 2.38 0 0 Z " fill="#393939" transform="translate(137,7)"/>
<path d="M0 0 C0 0.33 0 0.66 0 1 C-8.415 1.495 -8.415 1.495 -17 2 C-17 3.32 -17 4.64 -17 6 C-14.03 6 -11.06 6 -8 6 C-8 6.33 -8 6.66 -8 7 C-9.95766281 7.08082094 -11.91626728 7.13910778 -13.875 7.1875 C-15.51082031 7.23970703 -15.51082031 7.23970703 -17.1796875 7.29296875 C-18.11039063 7.19628906 -19.04109375 7.09960938 -20 7 C-20.66 6.01 -21.32 5.02 -22 4 C-23.98 4.33 -25.96 4.66 -28 5 C-21.40086992 -1.59913008 -8.58015601 -0.34269854 0 0 Z " fill="#898989" transform="translate(48,3)"/>
<path d="M0 0 C0.7425 0.0825 1.485 0.165 2.25 0.25 C1.92 0.91 1.59 1.57 1.25 2.25 C4.16652174 2.41681109 4.16652174 2.41681109 7.25 2.25 C7.91 1.59 8.57 0.93 9.25 0.25 C13.92692308 1.72692308 13.92692308 1.72692308 15.5625 4.375 C15.789375 4.99375 16.01625 5.6125 16.25 6.25 C15.44304687 6.09660156 14.63609375 5.94320313 13.8046875 5.78515625 C9.65952821 5.1611048 5.5577704 4.90372796 1.375 4.6875 C0.59125 4.64431641 -0.1925 4.60113281 -1 4.55664062 C-2.91650649 4.45146649 -4.83323333 4.35032075 -6.75 4.25 C-3.09375 0.28125 -3.09375 0.28125 0 0 Z " fill="#454545" transform="translate(160.75,5.75)"/>
<path d="M0 0 C0.99 0 1.98 0 3 0 C3.59981372 5.99813722 3.59981372 5.99813722 1.921875 8.80078125 C0.5625 10.4375 0.5625 10.4375 -2 13 C-2.33 13 -2.66 13 -3 13 C-3.0270043 11.54176788 -3.04639787 10.08339325 -3.0625 8.625 C-3.07410156 7.81289063 -3.08570313 7.00078125 -3.09765625 6.1640625 C-3 4 -3 4 -2 2 C-1.34 2 -0.68 2 0 2 C0 1.34 0 0.68 0 0 Z " fill="#484848" transform="translate(7,18)"/>
<path d="M0 0 C7.625 0.875 7.625 0.875 11 2 C11.99 1.67 12.98 1.34 14 1 C14 1.66 14 2.32 14 3 C10.27034861 5.03435531 8.33094958 6 4 6 C2.31301918 5.38655243 0.64034193 4.72904086 -1 4 C-0.67 2.68 -0.34 1.36 0 0 Z " fill="#404040" transform="translate(156,62)"/>
<path d="M0 0 C0.33 0 0.66 0 1 0 C1 1.65 1 3.3 1 5 C1.66 5 2.32 5 3 5 C2.03644647 14.41002278 2.03644647 14.41002278 1 19 C-0.55078125 18.01171875 -0.55078125 18.01171875 -2 16 C-1.89140867 13.15021129 -1.64357584 10.60504992 -1.1875 7.8125 C-1.07857422 7.06291016 -0.96964844 6.31332031 -0.85742188 5.54101562 C-0.58651277 3.69176651 -0.29519943 1.84552739 0 0 Z " fill="#4B4B4B" transform="translate(114,34)"/>
<path d="M0 0 C0.33 0.66 0.66 1.32 1 2 C1.66 2 2.32 2 3 2 C3.80967438 4.91482778 4.21845993 6.46113217 3.0625 9.3125 C2.5365625 10.1478125 2.5365625 10.1478125 2 11 C0.35 10.67 -1.3 10.34 -3 10 C-3 8.68 -3 7.36 -3 6 C-2.34 6 -1.68 6 -1 6 C-0.67 4.02 -0.34 2.04 0 0 Z " fill="#363636" transform="translate(19,80)"/>
<path d="M0 0 C-2.31 1.32 -4.62 2.64 -7 4 C-7 4.66 -7 5.32 -7 6 C-9.97 5.67 -12.94 5.34 -16 5 C-14.54987453 2.09974906 -12.68687091 1.91293145 -9.6875 0.8125 C-8.72199219 0.44769531 -7.75648438 0.08289063 -6.76171875 -0.29296875 C-3.9652203 -1.008904 -2.66140462 -0.99249531 0 0 Z " fill="#595959" transform="translate(162,5)"/>
<path d="M0 0 C0.33 0 0.66 0 1 0 C1 2.97 1 5.94 1 9 C0.34 9 -0.32 9 -1 9 C-1.33 12.63 -1.66 16.26 -2 20 C-2.33 20 -2.66 20 -3 20 C-3 14.06 -3 8.12 -3 2 C-2.01 2.495 -2.01 2.495 -1 3 C-0.67 2.01 -0.34 1.02 0 0 Z " fill="#2B2B2B" transform="translate(64,52)"/>
<path d="M0 0 C-0.33 3.63 -0.66 7.26 -1 11 C-1.99 11 -2.98 11 -4 11 C-3.67 11.99 -3.34 12.98 -3 14 C-3.66 14 -4.32 14 -5 14 C-4.85851011 12.3954444 -4.71164314 10.79136233 -4.5625 9.1875 C-4.48128906 8.29417969 -4.40007812 7.40085937 -4.31640625 6.48046875 C-4 4 -4 4 -3 1 C-1 0 -1 0 0 0 Z " fill="#3B3B3B" transform="translate(105,87)"/>
<path d="M0 0 C0.33 0.66 0.66 1.32 1 2 C1.66 2 2.32 2 3 2 C3 1.34 3 0.68 3 0 C3.66 0.33 4.32 0.66 5 1 C3.84826645 3.46800047 2.95216435 5.04783565 1 7 C0.34 7 -0.32 7 -1 7 C-1 6.34 -1 5.68 -1 5 C-2.98 5.33 -4.96 5.66 -7 6 C-7 5.01 -7 4.02 -7 3 C-6.34 3.33 -5.68 3.66 -5 4 C-2.39068734 3.10636395 -2.39068734 3.10636395 0 2 C0 1.34 0 0.68 0 0 Z " fill="#2E2E2E" transform="translate(170,63)"/>
<path d="M0 0 C-2.97 0.66 -5.94 1.32 -9 2 C-8.67 3.32 -8.34 4.64 -8 6 C-10.3125 6.6875 -10.3125 6.6875 -13 7 C-14.66796875 5.51953125 -14.66796875 5.51953125 -16 4 C-14.08959948 3.1319092 -12.17139263 2.28098217 -10.25 1.4375 C-9.18265625 0.96183594 -8.1153125 0.48617188 -7.015625 -0.00390625 C-4 -1 -4 -1 0 0 Z " fill="#696969" transform="translate(84,6)"/>
<path d="M0 0 C5.62541841 0.45003347 8.61487125 1.68441485 13 5 C12.67 5.66 12.34 6.32 12 7 C11.01 7 10.02 7 9 7 C8.67 7.66 8.34 8.32 8 9 C7.690625 8.21625 7.38125 7.4325 7.0625 6.625 C6.07124962 4.07669872 6.07124962 4.07669872 5 2 C4.01 2.33 3.02 2.66 2 3 C2 2.34 2 1.68 2 1 C1.34 0.67 0.68 0.34 0 0 Z " fill="#656565" transform="translate(54,5)"/>
<path d="M0 0 C0.66 0.33 1.32 0.66 2 1 C1.67 1.66 1.34 2.32 1 3 C1.66 3.33 2.32 3.66 3 4 C3 4.99 3 5.98 3 7 C1.35 7.33 -0.3 7.66 -2 8 C-2 7.01 -2 6.02 -2 5 C-3.32 5 -4.64 5 -6 5 C-5.01 4.67 -4.02 4.34 -3 4 C-2.67 3.01 -2.34 2.02 -2 1 C-1.34 0.67 -0.68 0.34 0 0 Z " fill="#303030" transform="translate(191,79)"/>
<path d="M0 0 C1.66666667 0 3.33333333 0 5 0 C5.33 0.99 5.66 1.98 6 3 C5.0390625 4.82421875 5.0390625 4.82421875 3.625 6.6875 C3.16351563 7.31011719 2.70203125 7.93273437 2.2265625 8.57421875 C1.82179687 9.04472656 1.41703125 9.51523438 1 10 C0.67 10 0.34 10 0 10 C0 6.7 0 3.4 0 0 Z " fill="#333333" transform="translate(135,106)"/>
<path d="M0 0 C4.95 0 9.9 0 15 0 C14.67 0.66 14.34 1.32 14 2 C14.66 2.66 15.32 3.32 16 4 C13.03 4 10.06 4 7 4 C7.33 3.34 7.66 2.68 8 2 C5.36 1.67 2.72 1.34 0 1 C0 0.67 0 0.34 0 0 Z " fill="#2C2C2C" transform="translate(100,5)"/>
<path d="M0 0 C0.99 0.66 1.98 1.32 3 2 C3 3.32 3 4.64 3 6 C4.98 5.67 6.96 5.34 9 5 C7.68 6.32 6.36 7.64 5 9 C3.68 8.34 2.36 7.68 1 7 C1 6.34 1 5.68 1 5 C0.01 4.67 -0.98 4.34 -2 4 C-1.34 2.68 -0.68 1.36 0 0 Z " fill="#767676" transform="translate(35,128)"/>
<path d="M0 0 C1.99097846 2.98646769 2.94124926 5.59687262 4 9 C3.34 9.66 2.68 10.32 2 11 C0.68 9.68 -0.64 8.36 -2 7 C-1.34 4.69 -0.68 2.38 0 0 Z " fill="#424242" transform="translate(135,97)"/>
<path d="M0 0 C0 0.99 0 1.98 0 3 C-3.21451269 4.60725635 -6.43612536 4.05748185 -10 4 C-10 3.34 -10 2.68 -10 2 C-8.71211992 1.46987262 -7.41953322 0.9511671 -6.125 0.4375 C-5.40570312 0.14746094 -4.68640625 -0.14257812 -3.9453125 -0.44140625 C-2 -1 -2 -1 0 0 Z " fill="#363636" transform="translate(28,7)"/>
<path d="M0 0 C0.33 0 0.66 0 1 0 C1 3.3 1 6.6 1 10 C-0.32 10.33 -1.64 10.66 -3 11 C-3 9.02 -3 7.04 -3 5 C-2.01 5 -1.02 5 0 5 C0 3.35 0 1.7 0 0 Z " fill="#2B2B2B" transform="translate(63,69)"/>
<path d="M0 0 C2.97 0.495 2.97 0.495 6 1 C4.13246006 4.86847559 2.66515672 7.55656218 -1 10 C-1 8.68 -1 7.36 -1 6 C-0.01 6 0.98 6 2 6 C2 4.68 2 3.36 2 2 C1.34 2 0.68 2 0 2 C0 1.34 0 0.68 0 0 Z " fill="#767676" transform="translate(195,61)"/>
<path d="M0 0 C0.33 0 0.66 0 1 0 C1.02698189 1.62490954 1.04638757 3.24994633 1.0625 4.875 C1.07410156 5.77992187 1.08570312 6.68484375 1.09765625 7.6171875 C1 10 1 10 0 12 C-0.66 12 -1.32 12 -2 12 C-2.28571429 3.42857143 -2.28571429 3.42857143 0 0 Z " fill="#313131" transform="translate(117,27)"/>
<path d="M0 0 C-2 3 -2 3 -4.625 3.6875 C-5.800625 3.8421875 -5.800625 3.8421875 -7 4 C-7 3.34 -7 2.68 -7 2 C-9.64 2 -12.28 2 -15 2 C-15 1.67 -15 1.34 -15 1 C-9.9752761 0.37470103 -5.07471573 -0.13012092 0 0 Z " fill="#494949" transform="translate(176,120)"/>
<path d="M0 0 C0.66 0 1.32 0 2 0 C1.5020163 3.73487777 1.12508244 5.81237635 -1 9 C-1.66 8.34 -2.32 7.68 -3 7 C-2.625 4.375 -2.625 4.375 -2 2 C-1.34 2 -0.68 2 0 2 C0 1.34 0 0.68 0 0 Z " fill="#464646" transform="translate(101,98)"/>
<path d="M0 0 C0.33 0 0.66 0 1 0 C1.66 3.96 2.32 7.92 3 12 C2.01 12 1.02 12 0 12 C-1.68798827 13.43750191 -1.68798827 13.43750191 -3 15 C-2.690625 14.195625 -2.38125 13.39125 -2.0625 12.5625 C-0.81434483 8.37750913 -0.3662304 4.33693899 0 0 Z " fill="#4B4B4B" transform="translate(135,24)"/>
<path d="M0 0 C-0.99 1.485 -0.99 1.485 -2 3 C-5.625 3.6875 -5.625 3.6875 -9 4 C-9 3.01 -9 2.02 -9 1 C-3.375 -1.125 -3.375 -1.125 0 0 Z " fill="#2D2D2D" transform="translate(84,7)"/>
<path d="M0 0 C0.66 0 1.32 0 2 0 C1.45276317 3.37462715 0.9451 5.08235 -1 8 C-1.66 8 -2.32 8 -3 8 C-2.45276317 4.62537285 -1.9451 2.91765 0 0 Z " fill="#343434" transform="translate(135,35)"/>
<path d="M0 0 C-1.485 2.475 -1.485 2.475 -3 5 C-5.31 4.01 -7.62 3.02 -10 2 C-6.3558226 -0.4294516 -4.28758728 -0.16179575 0 0 Z " fill="#2E2E2E" transform="translate(180,5)"/>
<path d="M0 0 C1 2 2 4 3 6 C2.34 6.66 1.68 7.32 1 8 C-0.32 7.01 -1.64 6.02 -3 5 C-1.125 1.125 -1.125 1.125 0 0 Z " fill="#414141" transform="translate(129,8)"/>
<path d="M0 0 C0.99 0.33 1.98 0.66 3 1 C3.66 0.67 4.32 0.34 5 0 C4.60196439 2.88575819 4.20990931 3.82189513 1.9375 5.75 C1.298125 6.1625 0.65875 6.575 0 7 C0 4.69 0 2.38 0 0 Z " fill="#2F2F2F" transform="translate(4,24)"/>
<path d="M0 0 C1.98 0.495 1.98 0.495 4 1 C4.33 2.32 4.66 3.64 5 5 C4.01 5.33 3.02 5.66 2 6 C2 5.34 2 4.68 2 4 C1.01 3.67 0.02 3.34 -1 3 C-0.67 2.01 -0.34 1.02 0 0 Z " fill="#4D4D4D" transform="translate(201,21)"/>
<path d="M0 0 C0.66 0.33 1.32 0.66 2 1 C1.67 2.65 1.34 4.3 1 6 C-0.32 5.34 -1.64 4.68 -3 4 C-3 3.01 -3 2.02 -3 1 C-2.01 0.67 -1.02 0.34 0 0 Z " fill="#828282" transform="translate(208,90)"/>
<path d="M0 0 C2.31 1.98 4.62 3.96 7 6 C6.34 6.66 5.68 7.32 5 8 C3.02 5.69 1.04 3.38 -1 1 C-0.67 0.67 -0.34 0.34 0 0 Z " fill="#F0F0F0" transform="translate(196,79)"/>
<path d="M0 0 C0.33 0 0.66 0 1 0 C1 1.65 1 3.3 1 5 C1.99 5 2.98 5 4 5 C3.34 6.65 2.68 8.3 2 10 C0 8 0 8 -0.1953125 6.0546875 C-0.13020833 4.03645833 -0.06510417 2.01822917 0 0 Z " fill="#2C2C2C" transform="translate(136,24)"/>
<path d="M0 0 C2.97 0.99 5.94 1.98 9 3 C8.34 3.66 7.68 4.32 7 5 C4.38419521 4.6730244 2.35921863 4.17960932 0 3 C0 2.01 0 1.02 0 0 Z " fill="#787878" transform="translate(137,7)"/>
<path d="M0 0 C-4.10457614 2.98514628 -6.97745369 3.2954439 -12 3 C-11 1 -11 1 -7.6875 -0.1875 C-4.42437937 -0.90649268 -3.00717118 -1.20286847 0 0 Z " fill="#848484" transform="translate(162,5)"/>
<path d="M0 0 C0.66 1.32 1.32 2.64 2 4 C0.68 4.33 -0.64 4.66 -2 5 C-2 5.66 -2 6.32 -2 7 C-3.32 7.33 -4.64 7.66 -6 8 C-4.02 5.36 -2.04 2.72 0 0 Z " fill="#3D3D3D" transform="translate(181,51)"/>
<path d="M0 0 C0.66 0.66 1.32 1.32 2 2 C1.34 2 0.68 2 0 2 C0 1.34 0 0.68 0 0 Z " fill="#F5F5F5" transform="translate(8,12)"/>
<path d="M0 0 C2 1 2 1 2 1 Z " fill="#F0F0F0" transform="translate(187,139)"/>
<path d="M0 0 C2 1 2 1 2 1 Z " fill="#F3F3F3" transform="translate(154,139)"/>
<path d="" fill="#F6F6F6" transform="translate(0,0)"/>
<path d="" fill="#EFEFEF" transform="translate(0,0)"/>
<path d="" fill="#F5F5F5" transform="translate(0,0)"/>
<path d="" fill="#F6F6F6" transform="translate(0,0)"/>
<path d="M0 0 C2 1 2 1 2 1 Z " fill="#F6F6F6" transform="translate(13,9)"/>
<path d="M0 0 C2 1 2 1 2 1 Z " fill="#F7F7F7" transform="translate(139,6)"/>
<path d="" fill="#F6F6F6" transform="translate(0,0)"/>
<path d="" fill="#F5F5F5" transform="translate(0,0)"/>
<path d="" fill="#EFEFEF" transform="translate(0,0)"/>
<path d="" fill="#F6F6F6" transform="translate(0,0)"/>
<path d="" fill="#F5F5F5" transform="translate(0,0)"/>
<path d="" fill="#F5F5F5" transform="translate(0,0)"/>
<path d="" fill="#F4F4F4" transform="translate(0,0)"/>
<path d="" fill="#EFEFEF" transform="translate(0,0)"/>
<path d="" fill="#F2F2F2" transform="translate(0,0)"/>
<path d="" fill="#F6F6F6" transform="translate(0,0)"/>
<path d="" fill="#F5F5F5" transform="translate(0,0)"/>
<path d="" fill="#F2F2F2" transform="translate(0,0)"/>
<path d="" fill="#F0F0F0" transform="translate(0,0)"/>
<path d="" fill="#F6F6F6" transform="translate(0,0)"/>
<path d="" fill="#F2F2F2" transform="translate(0,0)"/>
<path d="" fill="#E5E5E5" transform="translate(0,0)"/>
<path d="" fill="#F3F3F3" transform="translate(0,0)"/>
<path d="" fill="#F6F6F6" transform="translate(0,0)"/>
<path d="" fill="#F7F7F7" transform="translate(0,0)"/>
<path d="" fill="#F7F7F7" transform="translate(0,0)"/>
<path d="" fill="#F3F3F3" transform="translate(0,0)"/>
<path d="" fill="#F2F2F2" transform="translate(0,0)"/>
<path d="" fill="#EEEEEE" transform="translate(0,0)"/>
<path d="" fill="#F7F7F7" transform="translate(0,0)"/>
<path d="" fill="#F7F7F7" transform="translate(0,0)"/>
<path d="" fill="#F3F3F3" transform="translate(0,0)"/>
<path d="" fill="#F7F7F7" transform="translate(0,0)"/>
<path d="" fill="#F6F6F6" transform="translate(0,0)"/>
<path d="" fill="#F5F5F5" transform="translate(0,0)"/>
<path d="" fill="#F7F7F7" transform="translate(0,0)"/>
<path d="" fill="#F7F7F7" transform="translate(0,0)"/>
<path d="" fill="#F3F3F3" transform="translate(0,0)"/>
<path d="" fill="#F6F6F6" transform="translate(0,0)"/>
<path d="" fill="#F4F4F4" transform="translate(0,0)"/>
<path d="" fill="#F5F5F5" transform="translate(0,0)"/>
<path d="" fill="#F5F5F5" transform="translate(0,0)"/>
<path d="" fill="#F6F6F6" transform="translate(0,0)"/>
<path d="" fill="#F7F7F7" transform="translate(0,0)"/>
<path d="" fill="#F5F5F5" transform="translate(0,0)"/>
<path d="" fill="#F6F6F6" transform="translate(0,0)"/>
<path d="" fill="#F7F7F7" transform="translate(0,0)"/>
<path d="" fill="#F3F3F3" transform="translate(0,0)"/>
<path d="" fill="#F1F1F1" transform="translate(0,0)"/>
<path d="" fill="#F2F2F2" transform="translate(0,0)"/>
<path d="" fill="#F4F4F4" transform="translate(0,0)"/>
<path d="" fill="#F3F3F3" transform="translate(0,0)"/>
<path d="" fill="#F4F4F4" transform="translate(0,0)"/>
<path d="" fill="#F1F1F1" transform="translate(0,0)"/>
<path d="" fill="#F4F4F4" transform="translate(0,0)"/>
<path d="" fill="#F6F6F6" transform="translate(0,0)"/>
<path d="" fill="#F6F6F6" transform="translate(0,0)"/>
<path d="" fill="#F2F2F2" transform="translate(0,0)"/>
<path d="" fill="#F5F5F5" transform="translate(0,0)"/>
<path d="" fill="#F6F6F6" transform="translate(0,0)"/>
<path d="" fill="#F7F7F7" transform="translate(0,0)"/>
<path d="" fill="#F6F6F6" transform="translate(0,0)"/>
<path d="" fill="#F6F6F6" transform="translate(0,0)"/>
<path d="" fill="#EFEFEF" transform="translate(0,0)"/>
<path d="" fill="#F5F5F5" transform="translate(0,0)"/>
<path d="" fill="#F3F3F3" transform="translate(0,0)"/>
<path d="" fill="#F5F5F5" transform="translate(0,0)"/>
<path d="" fill="#F4F4F4" transform="translate(0,0)"/>
<path d="" fill="#F3F3F3" transform="translate(0,0)"/>
<path d="" fill="#F6F6F6" transform="translate(0,0)"/>
<path d="" fill="#F4F4F4" transform="translate(0,0)"/>
<path d="" fill="#F7F7F7" transform="translate(0,0)"/>
<path d="" fill="#F6F6F6" transform="translate(0,0)"/>
<path d="" fill="#F6F6F6" transform="translate(0,0)"/>
<path d="" fill="#F7F7F7" transform="translate(0,0)"/>
<path d="" fill="#F6F6F6" transform="translate(0,0)"/>
<path d="" fill="#F5F5F5" transform="translate(0,0)"/>
<path d="" fill="#F0F0F0" transform="translate(0,0)"/>
<path d="" fill="#F6F6F6" transform="translate(0,0)"/>
<path d="" fill="#F5F5F5" transform="translate(0,0)"/>
<path d="" fill="#F7F7F7" transform="translate(0,0)"/>
<path d="" fill="#F7F7F7" transform="translate(0,0)"/>
<path d="" fill="#F6F6F6" transform="translate(0,0)"/>
<path d="" fill="#F6F6F6" transform="translate(0,0)"/>
<path d="" fill="#F1F1F1" transform="translate(0,0)"/>
<path d="" fill="#F6F6F6" transform="translate(0,0)"/>
</svg>
